<svg xmlns="http://www.w3.org/2000/svg" viewBox="0 0 108 25" fill="none" xmlns:xlink="http://www.w3.org/1999/xlink">
<path fill-rule="evenodd" clip-rule="evenodd" d="M65.8153 5.69428V10.2061C65.033 9.1356 63.8184 8.47685 62.2127 8.47685C59.4131 8.47685 57.0869 10.8236 57.0869 13.8909C57.0869 16.9376 59.4131 19.305 62.2127 19.305C63.8184 19.305 65.033 18.6463 65.8153 17.5552V19.0374H68.0385V4.65756L65.8153 5.69428ZM53.4761 19.0374V5.24473L55.6994 4.20801V19.0374H53.4761ZM40.3879 11.5853H33.1829V13.7057H37.9999C37.5676 15.6407 35.9619 16.9994 33.3475 16.9994C30.1156 16.9994 28.0158 14.7555 28.0158 11.8529C28.0158 8.90916 30.1567 6.6653 33.2034 6.6653C35.0973 6.6653 36.703 7.61225 37.4441 8.95033L39.4821 7.77693C38.2676 5.73894 35.9414 4.35969 33.2034 4.35969C28.8804 4.35969 25.6484 7.69459 25.6484 11.8323C25.6484 15.9701 28.8392 19.305 33.327 19.305C37.547 19.305 40.3879 16.5053 40.3879 12.5734V11.5853ZM46.6487 19.305C49.6748 19.305 52.0834 16.9376 52.0834 13.8909C52.0834 10.8236 49.6748 8.47685 46.6487 8.47685C43.6432 8.47685 41.2141 10.8236 41.2141 13.8909C41.2141 16.9376 43.6432 19.305 46.6487 19.305ZM46.6487 17.1435C44.8372 17.1435 43.4373 15.7642 43.4373 13.8909C43.4373 12.0176 44.8372 10.6384 46.6487 10.6384C48.4603 10.6384 49.8601 12.0176 49.8601 13.8909C49.8601 15.7642 48.4603 17.1435 46.6487 17.1435ZM62.5627 17.1847C60.71 17.1847 59.3101 15.8054 59.3101 13.8909C59.3101 11.9764 60.71 10.5972 62.5627 10.5972C64.4154 10.5972 65.8153 11.9764 65.8153 13.8909C65.8153 15.8054 64.4154 17.1847 62.5627 17.1847ZM79.8524 15.8466L81.8698 8.74447H84.2166L80.9846 19.0374H78.8025L76.6616 12.1L74.5001 19.0374H72.318L69.086 8.74447H71.4328L73.4296 15.8466L75.5911 8.74447H77.7114L79.8524 15.8466ZM85.2362 19.0374H87.4595V8.74447H85.2362V19.0374ZM92.8626 10.4943C92.0598 10.4943 91.3598 10.8442 91.3598 11.5853C91.3598 12.3576 92.3009 12.619 93.4071 12.9264C94.9844 13.3647 96.8974 13.8963 96.8974 16.1348C96.8974 18.1934 95.1065 19.305 92.8832 19.305C90.8246 19.305 89.3424 18.3786 88.6837 16.8965L90.5982 15.7848C90.9276 16.7112 91.751 17.267 92.8832 17.267C93.8713 17.267 94.633 16.9376 94.633 16.1142C94.633 15.3565 93.686 15.0882 92.5753 14.7735C91 14.3272 89.0954 13.7875 89.0954 11.6265C89.0954 9.69142 90.7629 8.47685 92.8626 8.47685C94.5507 8.47685 95.9505 9.25911 96.671 10.6178L94.7977 11.6677C94.4271 10.8648 93.7066 10.4943 92.8626 10.4943ZM99.7227 14.8379H107.916C107.957 14.5497 107.998 14.2203 107.998 13.9115C107.998 10.9472 105.898 8.47685 102.831 8.47685C99.5992 8.47685 97.3965 10.8442 97.3965 13.8909C97.3965 16.9788 99.5992 19.305 102.996 19.305C105.013 19.305 106.557 18.461 107.504 17.0611L105.672 15.9907C105.178 16.7112 104.252 17.267 103.016 17.267C101.37 17.267 100.073 16.4436 99.7227 14.8379ZM99.7021 13.0263C100.011 11.4824 101.143 10.4943 102.811 10.4943C104.149 10.4943 105.446 11.2559 105.754 13.0263H99.7021Z" fill="white"></path>
<path fill-rule="evenodd" clip-rule="evenodd" d="M18.3171 0H0V18.3171H5.96875V5.96875H18.3171V0Z" fill="white"></path>
<rect x="5.96875" y="17.8672" width="6.17383" height="6.17383" fill="white"></rect>
<rect x="12.1436" y="11.6934" width="6.17383" height="6.17383" fill="white"></rect>
<rect x="85.0781" y="4.82031" width="2.41014" height="2.41014" fill="white"></rect>
</svg>