<svg
    width="228"
    height="45"
    viewBox="0 0 228 55"
    fill="#404353"
    xmlns="http://www.w3.org/2000/svg"
>
    <path
        d="M106.084 25.08H96.256V29H101.492C100.792 30.876 99.084 32.024 96.48 32.024C92.672 32.024 90.32 29.588 90.32 26.256C90.32 22.812 92.784 20.376 96.088 20.376C98.3 20.376 100.064 21.384 100.876 22.672L104.684 20.488C103.032 17.856 99.868 16.008 96.116 16.008C90.348 16.008 85.84 20.544 85.84 26.228C85.84 31.856 90.264 36.392 96.424 36.392C101.912 36.392 106.084 32.752 106.084 26.76V25.08Z"
    />
    <path
        d="M117.962 36.392C123.59 36.392 128.154 31.968 128.154 26.2C128.154 20.432 123.59 16.008 117.962 16.008C112.334 16.008 107.77 20.432 107.77 26.2C107.77 31.968 112.334 36.392 117.962 36.392ZM117.962 32.024C114.77 32.024 112.25 29.7 112.25 26.2C112.25 22.7 114.77 20.376 117.962 20.376C121.154 20.376 123.674 22.7 123.674 26.2C123.674 29.7 121.154 32.024 117.962 32.024Z"
    />
    <path
        d="M135.156 31.688V16.4H130.676V36H142.156V31.688H135.156Z"
    />
    <path
        d="M151.969 16.4H144.129V36H151.969C157.373 36 161.489 31.744 161.489 26.2C161.489 20.656 157.373 16.4 151.969 16.4ZM151.969 31.688H148.609V20.712H151.969C155.049 20.712 157.177 22.84 157.177 26.2C157.177 29.56 155.049 31.688 151.969 31.688Z"
    />
    <path
        d="M167.164 36H172.26L175.452 24.436L178.644 36H183.74L189.144 16.4H184.44L181.052 30.12L177.272 16.4H173.632L169.852 30.12L166.464 16.4H161.76L167.164 36Z"
    />
    <path
        d="M191.106 16.4V36H195.586V16.4H191.106Z"
    />
    <path
        d="M205.54 36.392C209.796 36.392 212.82 34.152 212.82 30.372C212.82 26.228 209.488 25.192 206.52 24.296C203.468 23.372 202.992 22.756 202.992 21.86C202.992 21.076 203.692 20.376 205.092 20.376C206.884 20.376 207.808 21.244 208.48 22.644L212.26 20.432C210.832 17.548 208.312 16.008 205.092 16.008C201.704 16.008 198.512 18.192 198.512 21.972C198.512 25.724 201.368 27.124 204.28 27.936C207.22 28.748 208.34 29.224 208.34 30.428C208.34 31.184 207.808 32.024 205.68 32.024C203.468 32.024 202.264 30.932 201.564 29.308L197.7 31.548C198.792 34.432 201.424 36.392 205.54 36.392Z"
    />
    <path
        d="M219.402 31.688V28.216H226.402V23.96H219.402V20.712H227.102V16.4H214.922V36H227.242V31.688H219.402Z"
    />
    <path
        d="M27.5 55C42.6878 55 55 42.6878 55 27.5C55 12.3122 42.6878 0 27.5 0C12.3122 0 0 12.3122 0 27.5C0 42.6878 12.3122 55 27.5 55Z"
    />
    <path
        d="M25.295 25.48H18.977V28H22.343C21.893 29.206 20.795 29.944 19.121 29.944C16.673 29.944 15.161 28.378 15.161 26.236C15.161 24.022 16.745 22.456 18.869 22.456C20.291 22.456 21.425 23.104 21.947 23.932L24.395 22.528C23.333 20.836 21.299 19.648 18.887 19.648C15.179 19.648 12.281 22.564 12.281 26.218C12.281 29.836 15.125 32.752 19.085 32.752C22.613 32.752 25.295 30.412 25.295 26.56V25.48Z"
        fill="white"
    />
    <path
        d="M28.9477 32.5H32.2237L34.2757 25.066L36.3277 32.5H39.6037L43.0777 19.9H40.0537L37.8757 28.72L35.4457 19.9H33.1057L30.6757 28.72L28.4977 19.9H25.4737L28.9477 32.5Z"
        fill="white"
    />
</svg>